<?xml version="1.0" standalone="no"?>
<!DOCTYPE svg PUBLIC "-//W3C//DTD SVG 20010904//EN"
 "http://www.w3.org/TR/2001/REC-SVG-20010904/DTD/svg10.dtd">
<svg version="1.0" xmlns="http://www.w3.org/2000/svg"
 width="481.000000pt" height="484.000000pt" viewBox="0 0 481.000000 484.000000"
 preserveAspectRatio="xMidYMid meet">

<g transform="translate(0.000000,484.000000) scale(0.100000,-0.100000)"
fill="#000000" stroke="none">
<path d="M440 4795 c-3 -27 -3 -86 1 -130 l6 -80 1 74 c1 41 5 71 10 67 4 -4
9 -114 13 -244 l5 -237 1 300 c1 175 -2 292 -7 280 -5 -11 -10 -36 -11 -55 -2
-27 -4 -23 -8 20 l-6 55 -5 -50z"/>
<path d="M496 4628 c3 -117 8 -215 10 -217 2 -2 4 93 4 212 0 134 -4 217 -10
217 -6 0 -7 -77 -4 -212z"/>
<path d="M521 4730 c-1 -70 2 -110 9 -110 6 0 10 41 10 110 0 61 -4 110 -9
110 -5 0 -9 -49 -10 -110z"/>
<path d="M581 4663 c1 -129 4 -164 10 -128 10 65 8 305 -3 305 -4 0 -7 -80 -7
-177z"/>
<path d="M615 4830 c3 -5 8 -10 11 -10 2 0 4 5 4 10 0 6 -5 10 -11 10 -5 0 -7
-4 -4 -10z"/>
<path d="M642 4625 l1 -220 9 194 c6 123 5 203 -1 220 -6 18 -9 -42 -9 -194z"/>
<path d="M674 4705 c0 -77 2 -107 3 -67 2 40 2 103 0 140 -2 37 -3 4 -3 -73z"/>
<path d="M700 4623 c0 -119 2 -214 4 -212 8 9 13 429 5 429 -5 0 -9 -98 -9
-217z"/>
<path d="M734 4660 c0 -102 2 -143 3 -92 2 50 2 134 0 185 -1 50 -3 9 -3 -93z"/>
<path d="M758 4763 c-3 -43 -2 -141 2 -218 7 -140 7 -140 8 78 1 119 0 217 -2
217 -1 0 -5 -35 -8 -77z"/>
<path d="M794 4665 c0 -99 2 -138 3 -87 2 51 2 132 0 180 -1 48 -3 6 -3 -93z"/>
<path d="M824 4665 c0 -99 2 -138 3 -87 2 51 2 132 0 180 -1 48 -3 6 -3 -93z"/>
<path d="M874 4624 c3 -119 8 -219 11 -222 3 -3 5 94 5 216 0 146 -4 222 -10
222 -7 0 -9 -71 -6 -216z"/>
<path d="M900 4665 c0 -115 3 -175 10 -175 6 0 10 61 10 175 0 100 -4 175 -9
175 -5 0 -10 -76 -11 -175z"/>
<path d="M936 4668 c3 -95 8 -175 10 -177 2 -2 4 75 4 172 0 114 -4 177 -10
177 -7 0 -8 -58 -4 -172z"/>
<path d="M966 4818 c-8 -32 -6 -198 4 -228 5 -15 8 28 9 113 1 75 -1 137 -3
137 -2 0 -6 -10 -10 -22z"/>
<path d="M990 4619 c0 -144 3 -218 10 -214 6 4 10 88 10 221 0 136 -4 214 -10
214 -6 0 -10 -80 -10 -221z"/>
<path d="M1020 4618 c0 -122 2 -219 4 -217 8 9 13 439 5 439 -5 0 -9 -100 -9
-222z"/>
<path d="M1050 4618 c0 -122 2 -219 4 -217 8 8 12 439 4 439 -4 0 -8 -100 -8
-222z"/>
<path d="M1084 4700 c0 -80 2 -112 3 -72 2 39 2 105 0 145 -1 39 -3 7 -3 -73z"/>
<path d="M1114 4545 c0 -165 2 -234 3 -153 2 81 2 216 0 300 -1 84 -3 18 -3
-147z"/>
<path d="M1144 4585 c0 -143 2 -200 3 -127 2 73 2 190 0 260 -1 70 -3 10 -3
-133z"/>
<path d="M1174 4545 c0 -165 2 -234 3 -153 2 81 2 216 0 300 -1 84 -3 18 -3
-147z"/>
<path d="M1204 4660 c0 -102 2 -143 3 -92 2 50 2 134 0 185 -1 50 -3 9 -3 -93z"/>
<path d="M1234 4720 c0 -69 1 -97 3 -62 2 34 2 90 0 125 -2 34 -3 6 -3 -63z"/>
<path d="M1264 4660 c0 -102 2 -143 3 -92 2 50 2 134 0 185 -1 50 -3 9 -3 -93z"/>
<path d="M1280 4705 c0 -83 4 -135 10 -135 6 0 10 52 10 135 0 83 -4 135 -10
135 -6 0 -10 -52 -10 -135z"/>
<path d="M1314 4665 c0 -99 2 -138 3 -87 2 51 2 132 0 180 -1 48 -3 6 -3 -93z"/>
<path d="M1344 4740 c0 -58 1 -81 3 -52 2 28 2 76 0 105 -2 28 -3 5 -3 -53z"/>
<path d="M1400 4829 c0 -5 5 -7 10 -4 6 3 10 8 10 11 0 2 -4 4 -10 4 -5 0 -10
-5 -10 -11z"/>
<path d="M1434 4745 c0 -55 1 -76 3 -47 2 29 2 74 0 100 -2 26 -3 2 -3 -53z"/>
<path d="M4651 4818 c6 -13 44 -69 83 -125 l71 -103 3 65 c3 67 -6 90 -55 145
-13 14 -23 28 -23 32 0 5 -20 8 -45 8 -44 0 -45 -1 -34 -22z"/>
<path d="M3086 4823 c-3 -3 9 -15 26 -27 36 -24 47 -46 24 -46 -9 0 -16 -4
-16 -10 0 -17 -40 -11 -47 8 -8 21 -35 42 -45 36 -5 -3 -8 -16 -8 -29 0 -19
-9 -26 -47 -39 -45 -16 -71 -13 -43 4 11 7 11 11 1 24 -10 11 -25 13 -64 9
-29 -3 -55 -11 -59 -17 -4 -6 -22 -16 -40 -22 -33 -11 -32 -11 32 -19 36 -5
55 -10 43 -12 -13 -3 -23 -9 -23 -14 0 -5 12 -6 26 -3 21 5 25 4 19 -6 -6 -10
-1 -12 25 -7 18 4 37 7 42 7 6 0 8 6 5 14 -4 10 6 15 36 19 23 3 46 13 53 21
13 18 34 21 34 6 0 -19 49 -10 79 16 29 24 30 27 16 48 -16 24 -59 49 -69 39z"/>
<path d="M563 4770 c0 -25 2 -35 4 -22 2 12 2 32 0 45 -2 12 -4 2 -4 -23z"/>
<path d="M611 4698 c0 -62 4 -135 9 -163 5 -36 8 -5 9 113 1 102 -3 162 -9
162 -6 0 -10 -44 -9 -112z"/>
<path d="M854 4645 c0 -93 2 -133 3 -88 2 45 2 122 0 170 -1 48 -3 12 -3 -82z"/>
<path d="M1374 4650 c0 -91 2 -128 3 -82 2 45 2 119 0 165 -1 45 -3 8 -3 -83z"/>
<path d="M1404 4650 c0 -91 2 -128 3 -82 2 45 2 119 0 165 -1 45 -3 8 -3 -83z"/>
<path d="M1463 4730 c0 -47 2 -66 4 -42 2 23 2 61 0 85 -2 23 -4 4 -4 -43z"/>
<path d="M1493 4730 c0 -47 2 -66 4 -42 2 23 2 61 0 85 -2 23 -4 4 -4 -43z"/>
<path d="M1523 4770 c0 -25 2 -35 4 -22 2 12 2 32 0 45 -2 12 -4 2 -4 -23z"/>
<path d="M1554 4720 c0 -52 1 -74 3 -47 2 26 2 68 0 95 -2 26 -3 4 -3 -48z"/>
<path d="M1663 4770 c0 -25 2 -35 4 -22 2 12 2 32 0 45 -2 12 -4 2 -4 -23z"/>
<path d="M3339 4763 c-21 -36 -31 -77 -23 -97 11 -28 21 -17 22 26 1 23 9 52
17 64 17 26 19 34 7 34 -4 0 -15 -12 -23 -27z"/>
<path d="M3473 4766 c21 -16 21 -23 2 -42 -8 -9 -15 -24 -15 -35 0 -10 -4 -19
-10 -19 -5 0 -10 -11 -10 -25 0 -16 -6 -25 -15 -25 -26 0 -16 -16 18 -28 45
-16 49 -15 42 7 -9 28 22 96 51 111 36 20 29 36 -23 54 -56 19 -64 20 -40 2z"/>
<path d="M2970 4745 c0 -9 6 -12 15 -9 8 4 12 10 9 15 -8 14 -24 10 -24 -6z"/>
<path d="M3610 4698 c0 -17 3 -19 9 -9 7 11 10 11 17 0 4 -7 3 -14 -4 -17 -7
-2 -10 -7 -8 -11 2 -3 -6 -29 -20 -56 -29 -60 -30 -74 -6 -91 29 -23 42 -16
42 20 0 39 31 80 68 91 19 5 22 3 22 -19 0 -14 5 -26 10 -26 13 0 13 -33 0
-46 -6 -6 -13 -35 -16 -65 -4 -40 -3 -50 5 -39 6 8 11 22 11 31 0 21 47 65 89
82 l33 14 -23 23 c-13 12 -43 31 -65 41 -23 11 -44 26 -47 34 -5 12 -95 65
-112 65 -3 0 -5 -10 -5 -22z"/>
<path d="M2640 4696 c0 -8 -6 -17 -12 -19 -8 -3 -6 -6 5 -6 9 -1 17 4 17 9 0
6 10 10 23 10 18 0 19 2 7 10 -22 14 -40 12 -40 -4z"/>
<path d="M2710 4700 c0 -6 7 -13 15 -16 12 -5 10 -10 -8 -25 -12 -10 -16 -18
-9 -19 6 0 12 4 12 10 0 5 7 7 15 4 20 -8 20 22 1 42 -17 17 -26 18 -26 4z"/>
<path d="M2566 4663 c-10 -64 -8 -86 9 -79 8 3 15 0 15 -6 0 -7 5 -6 15 2 11
9 15 9 15 1 0 -7 5 -9 11 -5 6 3 8 16 5 29 -6 22 15 51 27 38 9 -8 38 17 31
28 -3 5 -21 2 -41 -6 -47 -20 -53 -19 -50 7 1 14 -4 23 -14 26 -12 2 -18 -7
-23 -35z"/>
<path d="M1521 4634 c0 -11 3 -14 6 -6 3 7 2 16 -1 19 -3 4 -6 -2 -5 -13z"/>
<path d="M2380 4623 c-1 -22 -23 -53 -39 -53 -6 0 -11 -4 -11 -8 0 -4 -13 -13
-30 -19 -20 -8 -30 -18 -30 -32 0 -12 -4 -21 -10 -21 -5 0 -10 5 -10 10 0 6
-7 10 -15 10 -8 0 -15 -9 -15 -20 0 -11 -7 -23 -15 -26 -8 -4 -15 -15 -15 -25
0 -16 4 -17 25 -9 15 6 26 6 30 -1 4 -5 11 -7 16 -4 5 4 9 1 9 -5 0 -8 7 -9
18 -5 9 4 24 8 32 9 8 1 26 8 40 16 14 8 32 15 40 16 23 4 60 26 60 36 0 5
-11 24 -25 43 -14 18 -29 49 -32 69 -6 37 -23 50 -23 19z"/>
<path d="M47 4602 c-22 -24 -23 -106 -2 -146 8 -15 15 -34 15 -41 0 -11 22
-27 42 -29 3 -1 10 -4 13 -8 12 -11 59 44 73 85 15 42 12 56 -8 32 -17 -20
-80 -20 -80 0 0 8 -4 15 -9 15 -5 0 -11 9 -14 21 -3 12 -10 18 -16 14 -14 -8
-14 11 0 36 15 29 6 44 -14 21z"/>
<path d="M442 4545 c0 -16 2 -22 5 -12 2 9 2 23 0 30 -3 6 -5 -1 -5 -18z"/>
<path d="M1233 4525 c0 -27 2 -38 4 -22 2 15 2 37 0 50 -2 12 -4 0 -4 -28z"/>
<path d="M2481 4554 c0 -11 3 -14 6 -6 3 7 2 16 -1 19 -3 4 -6 -2 -5 -13z"/>
<path d="M533 4525 c0 -22 2 -30 4 -17 2 12 2 30 0 40 -3 9 -5 -1 -4 -23z"/>
<path d="M3896 4505 c4 -18 -2 -38 -25 -73 -46 -72 -39 -115 32 -206 l30 -38
20 42 c22 46 51 69 99 79 17 4 33 12 36 19 2 7 -18 36 -45 64 -131 141 -160
162 -147 113z m33 -149 c24 -38 26 -46 9 -46 -19 0 -58 42 -58 62 0 29 27 21
49 -16z"/>
<path d="M1083 4450 c0 -25 2 -35 4 -22 2 12 2 32 0 45 -2 12 -4 2 -4 -23z"/>
<path d="M2050 4422 c0 -12 -32 -46 -79 -85 -12 -10 -19 -22 -15 -29 4 -6 1
-9 -7 -6 -8 2 -23 19 -34 36 -21 33 -35 38 -66 22 -22 -12 -26 -35 -4 -26 28
10 15 -10 -25 -40 -31 -22 -40 -36 -40 -59 0 -45 41 -85 89 -85 51 0 118 48
123 87 2 15 6 26 9 23 3 -3 13 1 22 9 10 7 17 11 17 8 0 -4 19 4 43 16 34 19
41 28 39 47 -3 26 -72 104 -72 82z"/>
<path d="M2160 4414 c0 -8 5 -12 10 -9 6 4 8 11 5 16 -9 14 -15 11 -15 -7z"/>
<path d="M383 4380 c0 -25 2 -35 4 -22 2 12 2 32 0 45 -2 12 -4 2 -4 -23z"/>
<path d="M1263 4370 c0 -25 2 -35 4 -22 2 12 2 32 0 45 -2 12 -4 2 -4 -23z"/>
<path d="M1805 4330 c-3 -5 -1 -10 4 -10 6 0 11 5 11 10 0 6 -2 10 -4 10 -3 0
-8 -4 -11 -10z"/>
<path d="M4140 4232 c0 -32 4 -42 21 -47 11 -4 23 -4 26 -1 8 7 -16 63 -33 77
-12 9 -14 4 -14 -29z"/>
<path d="M3007 4249 c7 -7 15 -10 18 -7 3 3 -2 9 -12 12 -14 6 -15 5 -6 -5z"/>
<path d="M4228 4106 c5 -16 13 -31 20 -34 17 -5 14 9 -8 38 l-19 25 7 -29z"/>
<path d="M3150 4100 c0 -14 5 -32 10 -40 8 -12 10 -10 10 10 0 14 -5 32 -10
40 -8 12 -10 10 -10 -10z"/>
<path d="M1616 4074 c-18 -17 -21 -44 -6 -44 6 0 10 4 10 10 0 5 7 7 15 4 9
-4 15 0 15 7 0 12 2 12 9 0 5 -8 11 -9 15 -3 6 11 -19 42 -34 42 -5 0 -16 -7
-24 -16z"/>
<path d="M1577 4043 c-11 -10 -8 -43 3 -43 6 0 10 11 10 25 0 26 -2 29 -13 18z"/>
<path d="M4258 3975 c-3 -27 -12 -54 -19 -60 -8 -5 -22 -20 -32 -31 -17 -21
-17 -21 40 -17 45 3 55 2 43 -7 -11 -9 -12 -13 -2 -17 29 -12 9 -67 -40 -112
-28 -24 -22 -28 40 -24 36 3 52 1 44 -5 -7 -5 -12 -13 -11 -18 1 -5 1 -25 0
-44 -1 -28 -7 -39 -31 -53 -36 -21 -39 -51 -11 -102 l19 -36 36 44 c20 25 49
50 65 57 27 11 28 13 20 56 -5 24 -13 53 -19 63 -5 11 -10 38 -10 61 0 35 -14
71 -49 130 -5 8 -15 36 -21 61 -6 25 -22 59 -34 74 l-23 29 -5 -49z m72 -479
c0 -3 -4 -8 -10 -11 -5 -3 -10 -1 -10 4 0 6 5 11 10 11 6 0 10 -2 10 -4z"/>
<path d="M1456 3940 c-20 -22 -36 -43 -36 -48 0 -12 20 -38 20 -26 0 7 12 15
27 19 15 3 33 15 41 26 9 13 20 18 33 14 26 -9 26 31 0 45 -33 17 -47 12 -85
-30z"/>
<path d="M3010 3715 c0 -5 5 -17 10 -25 5 -8 10 -10 10 -5 0 6 -5 17 -10 25
-5 8 -10 11 -10 5z"/>
<path d="M2189 3689 c14 -5 30 -13 36 -17 6 -4 2 1 -8 11 -11 9 -27 17 -36 16
-10 0 -7 -4 8 -10z"/>
<path d="M1270 3670 c0 -19 3 -21 12 -12 9 9 9 15 0 24 -9 9 -12 7 -12 -12z"/>
<path d="M1240 3665 c0 -8 -7 -15 -15 -15 -10 0 -15 -10 -15 -27 0 -19 -3 -24
-9 -15 -7 11 -10 10 -15 -3 -9 -25 -7 -45 4 -45 6 0 10 8 10 18 0 13 2 14 9 4
6 -10 10 -7 15 12 4 15 10 24 15 22 5 -3 11 4 15 17 8 32 7 47 -4 47 -5 0 -10
-7 -10 -15z"/>
<path d="M2295 3529 c3 -46 -1 -97 -9 -127 -7 -28 -10 -49 -6 -47 25 15 38
172 19 225 -6 17 -7 0 -4 -51z"/>
<path d="M1120 3535 c0 -9 -6 -22 -12 -29 -7 -8 -20 -24 -28 -36 -8 -12 -23
-31 -33 -43 -11 -12 -16 -30 -13 -42 4 -14 -2 -27 -15 -38 -13 -12 -19 -27
-17 -45 2 -15 6 -25 9 -22 3 3 13 -1 21 -8 13 -10 17 -10 21 0 4 10 6 10 6 1
1 -19 21 -16 21 3 0 8 4 13 9 10 5 -3 12 6 15 20 7 27 18 43 49 72 9 9 17 20
17 24 0 5 9 17 20 28 11 11 20 31 20 45 0 24 -31 65 -49 65 -5 0 -16 3 -25 6
-11 4 -16 1 -16 -11z"/>
<path d="M1589 3529 c24 -11 46 -18 48 -15 4 4 -73 36 -85 35 -4 0 13 -9 37
-20z"/>
<path d="M4500 3481 c0 -23 5 -41 10 -41 6 0 10 15 10 34 0 19 -4 38 -10 41
-6 4 -10 -10 -10 -34z"/>
<path d="M4232 3475 c0 -16 2 -22 5 -12 2 9 2 23 0 30 -3 6 -5 -1 -5 -18z"/>
<path d="M1703 3370 c0 -57 1 -60 8 -29 4 20 4 49 0 65 -7 23 -9 15 -8 -36z"/>
<path d="M3224 3365 c2 -11 14 -45 26 -75 139 -355 185 -525 199 -745 l8 -110
1 100 c3 166 -31 328 -114 553 -59 159 -132 327 -120 277z"/>
<path d="M4398 3353 c-12 -3 -18 -14 -18 -34 0 -21 5 -29 18 -30 14 0 14 -2
-3 -8 -18 -7 -16 -10 15 -19 19 -5 44 -13 55 -17 16 -6 18 -5 8 5 -7 7 -9 25
-6 40 10 52 -17 77 -69 63z"/>
<path d="M950 3271 c0 -5 10 -11 23 -15 13 -3 36 -17 50 -30 17 -16 27 -20 27
-12 0 15 -35 41 -75 56 -14 5 -25 6 -25 1z"/>
<path d="M4147 3243 c-8 -13 4 -93 14 -93 5 0 6 21 2 48 -6 52 -8 57 -16 45z"/>
<path d="M1065 3190 c3 -5 8 -10 11 -10 2 0 4 5 4 10 0 6 -5 10 -11 10 -5 0
-7 -4 -4 -10z"/>
<path d="M4515 3053 c0 -81 -3 -170 -8 -198 l-7 -50 16 40 c23 56 31 266 12
318 -13 36 -14 28 -13 -110z"/>
<path d="M3616 3121 c-14 -15 -15 -24 -7 -40 13 -23 49 -46 59 -36 3 3 -4 8
-16 11 -26 7 -37 36 -22 64 13 25 8 26 -14 1z"/>
<path d="M4002 3050 c0 -72 1 -73 11 -32 7 29 7 52 -1 75 -9 28 -10 23 -10
-43z"/>
<path d="M1592 3070 c0 -14 2 -19 5 -12 2 6 2 18 0 25 -3 6 -5 1 -5 -13z"/>
<path d="M1146 3045 c5 -22 8 -88 9 -147 0 -58 1 -105 2 -104 1 1 6 28 11 61
11 70 0 201 -17 218 -10 9 -11 3 -5 -28z"/>
<path d="M4364 3067 c-3 -8 -20 -13 -47 -12 -23 1 -49 -2 -58 -6 -23 -12 -45
-49 -53 -89 -6 -29 -5 -33 6 -20 7 8 22 14 33 14 11 -1 26 -2 34 -3 10 -1 12
-12 8 -46 -8 -58 -1 -75 32 -75 22 1 24 2 9 11 -21 12 -24 41 -5 33 24 -9 40
23 34 66 -3 22 -1 43 4 46 5 3 9 14 9 25 0 10 5 19 10 19 6 0 10 11 10 25 0
26 -17 34 -26 12z"/>
<path d="M3701 2988 c1 -7 5 -24 9 -38 7 -22 8 -21 9 13 1 20 -3 37 -9 37 -5
0 -10 -6 -9 -12z"/>
<path d="M1582 2970 c0 -14 2 -19 5 -12 2 6 2 18 0 25 -3 6 -5 1 -5 -13z"/>
<path d="M4131 2900 c-12 -48 -8 -90 9 -90 21 0 42 15 55 39 16 32 8 50 -20
48 -16 -2 -19 3 -17 26 5 45 -13 30 -27 -23z"/>
<path d="M1587 2908 c3 -18 13 -42 21 -53 14 -19 14 -19 8 5 -4 14 -9 37 -12
53 -9 39 -25 34 -17 -5z"/>
<path d="M2790 2916 c42 -17 58 -20 45 -7 -6 5 -26 12 -45 15 l-35 6 35 -14z"/>
<path d="M1946 2805 c-3 -9 -5 -29 -5 -43 1 -20 3 -17 9 13 8 43 7 57 -4 30z"/>
<path d="M2966 2760 c9 -48 23 -73 23 -40 0 14 -6 36 -15 50 -15 25 -15 25 -8
-10z"/>
<path d="M4166 2740 c-11 -27 -22 -40 -35 -40 -19 0 -31 -18 -31 -46 0 -8 10
-14 25 -14 14 0 27 -6 29 -12 2 -7 9 -35 15 -62 12 -51 39 -82 56 -65 5 5 19
9 32 9 20 0 23 5 23 38 0 20 7 46 15 56 21 28 19 39 -10 56 -13 8 -42 39 -63
68 l-40 52 -16 -40z"/>
<path d="M800 2740 c0 -13 11 -13 30 0 12 8 11 10 -7 10 -13 0 -23 -4 -23 -10z"/>
<path d="M3851 2716 c-9 -16 -10 -29 -4 -41 8 -14 11 -10 16 21 8 46 4 52 -12
20z"/>
<path d="M768 2719 c-10 -5 -18 -15 -18 -22 0 -7 4 -6 11 3 8 12 9 11 7 -5 -2
-12 -10 -19 -20 -17 -22 3 -25 -10 -33 -140 -6 -98 -5 -120 10 -151 18 -39 37
-50 28 -17 -3 11 -1 20 5 20 15 0 34 54 31 87 -2 15 5 48 15 73 11 30 16 66
14 105 -3 52 -5 60 -22 57 -11 -2 -15 1 -11 7 8 13 5 13 -17 0z"/>
<path d="M2890 2542 c0 -5 6 -17 14 -27 13 -18 14 -18 9 8 -5 24 -23 39 -23
19z"/>
<path d="M2938 2483 c7 -3 16 -2 19 1 4 3 -2 6 -13 5 -11 0 -14 -3 -6 -6z"/>
<path d="M1745 2390 c4 -80 25 -163 49 -195 10 -13 6 9 -10 60 -14 44 -30 109
-34 145 l-9 65 4 -75z"/>
<path d="M4044 2439 c-35 -10 -57 -40 -23 -32 23 6 25 -13 5 -62 -16 -39 -30
-44 -45 -18 -8 14 -11 11 -16 -20 -9 -44 6 -67 44 -68 22 0 21 -2 -14 -15 -34
-12 -302 -76 -385 -91 -14 -3 -45 -11 -70 -18 -25 -7 -92 -23 -150 -35 -58
-13 -178 -40 -267 -61 -88 -22 -165 -39 -170 -39 -5 0 -17 31 -26 69 -21 79
-49 119 -37 51 4 -22 5 -51 3 -64 -5 -22 -10 -25 -47 -24 -24 0 -54 -6 -67
-13 -13 -7 -28 -13 -32 -14 -4 0 -12 -7 -17 -15 -8 -13 -10 -12 -10 4 0 15 -3
16 -14 7 -11 -9 -15 -9 -19 1 -4 8 -6 7 -6 -4 -1 -10 6 -18 14 -18 9 0 12 -6
8 -16 -5 -13 -7 -13 -14 -2 -7 10 -9 9 -9 -4 0 -12 -8 -18 -25 -18 -22 0 -25
5 -27 38 l-1 37 -7 -45 c-5 -35 -7 -38 -9 -15 -1 17 -6 37 -11 45 -7 12 -10 8
-11 -15 0 -16 -3 -23 -6 -15 -14 43 -18 40 -23 -15 l-7 -60 -1 58 c-1 36 -6
56 -12 52 -5 -3 -10 -16 -11 -28 0 -12 -3 -16 -6 -9 -4 10 -8 9 -19 -5 -11
-14 -13 -15 -14 -3 0 12 -3 11 -11 -3 -6 -9 -14 -15 -19 -12 -5 3 -12 -11 -16
-32 l-8 -38 -7 30 c-6 26 -7 23 -8 -17 -1 -49 -16 -65 -24 -25 -2 12 -5 2 -7
-23 -2 -25 -5 -35 -7 -22 -9 47 -23 19 -23 -47 0 -63 -2 -70 -19 -68 -11 1
-22 10 -25 21 -3 11 -9 17 -13 13 -13 -14 28 -74 68 -98 43 -26 45 -31 100
-239 42 -158 78 -211 174 -256 79 -37 150 -33 391 26 113 27 208 50 211 50 3
0 3 -6 0 -14 -3 -8 1 -17 8 -20 11 -4 8 -17 -15 -62 -17 -31 -30 -63 -30 -71
0 -10 -6 -12 -20 -8 -16 5 -20 2 -20 -15 0 -11 -4 -26 -10 -33 -5 -7 -23 -28
-40 -48 -16 -20 -30 -46 -30 -58 0 -18 3 -19 24 -11 13 5 27 6 30 3 3 -3 12
-1 19 5 8 7 16 9 19 6 3 -3 15 7 26 21 13 17 22 21 25 13 3 -8 9 -1 16 14 7
19 18 28 34 28 47 0 147 89 147 132 0 24 4 28 29 28 37 0 107 76 123 136 l11
40 136 33 c581 140 749 184 788 207 24 14 48 22 53 19 5 -3 16 8 25 25 8 16
18 30 21 30 2 0 18 -16 35 -35 17 -19 34 -35 38 -35 3 0 19 12 34 26 l29 25
-37 41 -38 41 24 18 c13 10 32 21 42 25 28 9 16 25 -33 43 -38 14 -45 21 -48
46 -6 59 -75 301 -99 345 -13 25 -37 54 -53 65 -17 11 -30 23 -30 28 0 4 -5 7
-11 7 -5 0 -8 -4 -5 -9 3 -5 -11 -3 -32 5 -61 22 -87 19 -317 -36 -44 -10
-109 -26 -145 -34 -36 -8 -95 -22 -132 -30 -38 -9 -96 -22 -130 -30 -35 -8
-151 -36 -258 -61 -285 -67 -562 -132 -675 -157 -27 -6 -70 -16 -95 -23 -25
-7 -57 -16 -73 -19 -56 -13 -127 -120 -127 -193 0 -35 78 -341 96 -375 9 -17
11 -28 6 -24 -31 19 -112 312 -112 407 0 113 69 200 183 233 29 8 183 45 342
82 160 37 324 75 365 84 41 10 156 36 255 59 99 22 248 57 330 76 83 19 191
44 240 55 110 25 126 32 60 25 l-50 -5 0 71 c0 62 -3 73 -24 90 -25 20 -74 24
-127 8z m352 -250 c49 -15 124 -108 124 -154 0 -26 -24 -12 -35 21 -11 31 -45
84 -45 69 0 -5 -7 0 -15 11 -8 10 -15 15 -15 10 0 -5 -7 -3 -15 4 -8 7 -15 10
-15 6 0 -3 -11 -1 -25 4 -15 6 -27 6 -30 0 -3 -6 -15 -6 -29 0 -14 5 -27 5
-32 0 -5 -5 -26 -10 -47 -12 -20 -1 -37 -6 -37 -11 0 -5 -7 -7 -15 -4 -8 4
-17 2 -19 -2 -3 -5 -16 -8 -28 -7 -13 1 -25 -2 -28 -6 -3 -4 -21 -10 -40 -12
-19 -3 -46 -9 -60 -14 -14 -5 -31 -7 -37 -5 -7 3 -13 1 -13 -4 0 -5 -10 -10
-22 -11 -26 -2 -62 -9 -65 -12 -4 -3 -14 -6 -58 -14 -22 -4 -62 -14 -90 -21
-27 -8 -65 -17 -84 -20 -19 -3 -38 -8 -42 -11 -5 -3 -23 -7 -41 -9 -52 -8 -62
-10 -74 -17 -6 -4 -22 -9 -37 -12 -15 -3 -35 -7 -45 -10 -9 -3 -28 -7 -42 -10
-14 -3 -90 -21 -170 -40 -80 -20 -176 -43 -215 -52 -227 -51 -305 -73 -305
-86 0 -5 -4 -7 -8 -4 -5 3 -19 -8 -31 -25 -19 -26 -22 -41 -20 -97 2 -37 0
-72 -3 -78 -4 -5 -3 -26 2 -45 5 -18 16 -63 25 -98 18 -72 27 -92 57 -126 43
-50 147 -70 211 -41 33 14 152 46 197 52 47 6 350 74 553 123 111 27 281 68
377 91 168 40 408 100 460 114 l25 8 -22 -20 c-15 -13 -106 -40 -280 -82 -142
-34 -494 -120 -783 -192 -572 -142 -614 -148 -690 -110 -65 32 -98 85 -133
216 -58 217 -57 261 5 332 55 62 20 52 723 210 231 52 521 118 645 146 358 81
357 81 436 57z m-298 -236 c-2 -9 12 -31 30 -49 27 -27 32 -39 32 -80 0 -55
-20 -84 -60 -84 -55 0 -104 95 -77 149 10 20 11 34 4 46 -12 21 6 35 46 35 21
0 28 -4 25 -17z m188 -10 c3 -16 12 -48 20 -72 8 -25 14 -53 14 -63 0 -31 -36
-21 -70 20 -21 25 -29 30 -26 17 19 -74 19 -75 -1 -75 -14 0 -24 18 -44 85
-14 46 -24 87 -21 90 16 16 49 1 71 -30 25 -37 41 -41 22 -7 -18 33 -14 62 9
62 13 0 22 -9 26 -27z m-1696 -43 c0 -5 -5 -10 -11 -10 -5 0 -7 5 -4 10 3 6 8
10 11 10 2 0 4 -4 4 -10z m1967 -12 c-3 -8 -6 -5 -6 6 -1 11 2 17 5 13 3 -3 4
-12 1 -19z m-555 -68 c22 -95 22 -100 0 -100 -14 0 -23 17 -40 73 -28 94 -28
109 0 105 19 -3 25 -15 40 -78z m-89 64 c24 -9 8 -42 -22 -46 -22 -3 -26 -8
-29 -39 -4 -43 25 -76 55 -61 37 19 59 -9 26 -34 -28 -21 -60 -16 -94 14 -24
21 -32 39 -36 74 -5 40 -2 50 20 72 26 25 50 32 80 20z m-149 -83 c14 -28 35
-65 46 -83 11 -18 20 -36 20 -40 0 -15 -41 -8 -46 7 -10 25 -53 19 -60 -9 -6
-26 -34 -44 -35 -23 -1 35 -2 117 0 155 1 37 4 42 25 42 19 0 30 -11 50 -49z
m-145 -2 c19 -18 22 -29 18 -59 -4 -30 0 -43 19 -63 29 -31 29 -33 7 -41 -11
-4 -28 5 -51 26 l-35 33 6 -37 c4 -27 2 -38 -10 -42 -9 -4 -17 -5 -18 -4 -5 6
-55 182 -52 184 3 3 70 22 83 23 5 1 21 -9 33 -20z m949 -12 c23 -6 42 -15 42
-19 0 -4 7 -5 15 -2 8 4 15 1 15 -6 0 -7 7 -10 15 -6 8 3 15 2 15 -3 0 -4 15
-12 33 -18 l32 -9 -32 -17 c-47 -25 -48 -34 -13 -78 31 -39 34 -69 8 -69 -7 0
-26 18 -42 40 -35 47 -42 49 -58 15 -6 -14 -14 -25 -18 -25 -8 0 -90 193 -90
211 0 7 7 8 18 4 9 -3 36 -11 60 -18z m-1092 -32 c9 -13 14 -30 11 -37 -2 -7
1 -20 8 -28 40 -47 17 -96 -50 -106 l-40 -6 -24 84 c-30 105 -30 100 -1 109
50 14 79 10 96 -16z m-138 -21 c2 -17 -4 -23 -27 -27 -42 -9 -39 -27 4 -27 28
0 35 -4 35 -20 0 -15 -7 -20 -24 -20 -14 0 -28 -4 -31 -10 -11 -18 10 -35 45
-35 54 0 44 -25 -15 -40 -53 -14 -65 -12 -65 9 0 7 -9 42 -20 76 -28 89 -27
94 23 107 57 14 71 11 75 -13z m-198 -71 c26 -102 24 -98 62 -95 25 2 37 -1
42 -13 3 -9 0 -18 -7 -20 -31 -10 -99 -26 -101 -23 -2 3 -12 33 -52 166 -6 19
4 32 25 32 14 0 22 -13 31 -47z m-72 5 c2 -12 -6 -19 -32 -24 -22 -4 -36 -12
-36 -21 0 -12 8 -14 34 -9 26 5 35 3 40 -10 7 -19 -9 -34 -36 -34 -12 0 -18
-8 -18 -21 0 -19 4 -20 39 -14 30 5 40 3 44 -9 8 -19 -16 -33 -70 -42 l-40 -6
-26 93 c-15 51 -25 95 -22 97 8 8 70 20 95 19 14 -1 26 -9 28 -19z m-143 -32
c0 -14 -10 -22 -32 -28 -29 -7 -33 -13 -33 -41 0 -49 20 -71 58 -64 19 4 34 1
41 -7 14 -16 -1 -31 -42 -41 -58 -15 -107 42 -107 123 0 32 6 45 27 62 34 27
88 24 88 -4z"/>
<path d="M4067 1873 c-22 -22 16 -105 41 -89 15 9 15 51 2 77 -11 19 -31 25
-43 12z"/>
<path d="M3730 1755 c0 -8 4 -15 10 -15 5 0 7 7 4 15 -4 8 -8 15 -10 15 -2 0
-4 -7 -4 -15z"/>
<path d="M3560 1750 c0 -11 6 -20 13 -20 19 0 27 10 20 26 -8 21 -33 17 -33
-6z"/>
<path d="M3410 1725 c0 -8 7 -15 15 -15 8 0 15 4 15 9 0 5 -7 11 -15 15 -9 3
-15 0 -15 -9z"/>
<path d="M3433 1654 c-8 -20 8 -36 26 -25 15 10 8 41 -9 41 -6 0 -13 -7 -17
-16z"/>
<path d="M1076 2410 c4 -19 11 -46 15 -60 6 -21 7 -19 8 15 0 22 -6 49 -15 60
-13 18 -14 17 -8 -15z"/>
<path d="M3431 2390 c0 -14 -4 -36 -7 -50 -5 -22 -4 -23 6 -7 6 9 9 32 7 50
-3 25 -4 26 -6 7z"/>
<path d="M1300 2240 c0 -5 5 -10 11 -10 5 0 7 5 4 10 -3 6 -8 10 -11 10 -2 0
-4 -4 -4 -10z"/>
<path d="M603 2160 c0 -36 2 -50 4 -32 2 17 2 47 0 65 -2 17 -4 3 -4 -33z"/>
<path d="M633 2150 c0 -41 2 -58 4 -37 2 20 2 54 0 75 -2 20 -4 3 -4 -38z"/>
<path d="M540 2165 c0 -8 5 -15 10 -15 6 0 10 7 10 15 0 8 -4 15 -10 15 -5 0
-10 -7 -10 -15z"/>
<path d="M662 2160 c0 -14 2 -19 5 -12 2 6 2 18 0 25 -3 6 -5 1 -5 -13z"/>
<path d="M1395 2093 c34 -114 29 -242 -16 -394 -10 -36 -19 -70 -19 -75 1 -24
30 50 51 131 32 123 33 269 2 338 -28 60 -36 60 -18 0z"/>
<path d="M662 2110 c0 -14 2 -19 5 -12 2 6 2 18 0 25 -3 6 -5 1 -5 -13z"/>
<path d="M3218 2093 c7 -3 16 -2 19 1 4 3 -2 6 -13 5 -11 0 -14 -3 -6 -6z"/>
<path d="M1880 2086 c0 -2 34 -22 75 -44 41 -21 72 -35 69 -30 -3 5 -33 23
-67 41 -78 40 -77 40 -77 33z"/>
<path d="M842 2068 c-14 -14 -16 -54 -3 -62 5 -3 11 11 13 32 6 44 5 45 -10
30z"/>
<path d="M640 1953 c0 -24 5 -43 10 -43 13 0 13 50 0 70 -7 11 -10 4 -10 -27z"/>
<path d="M845 1897 c7 -119 83 -238 150 -236 18 0 17 1 -4 10 -62 25 -78 46
-110 146 -16 54 -32 109 -35 123 -3 14 -3 -5 -1 -43z"/>
<path d="M673 1900 c0 -25 2 -35 4 -22 2 12 2 32 0 45 -2 12 -4 2 -4 -23z"/>
<path d="M702 1900 c0 -19 2 -27 5 -17 2 9 2 25 0 35 -3 9 -5 1 -5 -18z"/>
<path d="M2090 1914 c0 -6 7 -33 15 -60 29 -96 30 -210 1 -309 -4 -11 1 -4 10
15 35 72 27 296 -12 347 -7 10 -14 13 -14 7z"/>
<path d="M508 1880 c-27 -16 -51 -94 -45 -145 6 -57 10 -62 42 -41 27 18 35
66 11 66 -8 0 -17 13 -21 29 -7 32 10 75 26 66 5 -4 9 3 9 14 0 24 1 24 -22
11z"/>
<path d="M700 1721 c0 -23 2 -41 4 -41 8 0 12 71 4 76 -4 3 -8 -13 -8 -35z"/>
<path d="M1252 1690 c0 -14 2 -19 5 -12 2 6 2 18 0 25 -3 6 -5 1 -5 -13z"/>
<path d="M1220 1650 c0 -5 5 -10 10 -10 6 0 10 5 10 10 0 6 -4 10 -10 10 -5 0
-10 -4 -10 -10z"/>
<path d="M1346 1595 c-3 -9 -6 -22 -5 -28 0 -7 5 -1 10 12 5 13 8 26 5 28 -2
2 -6 -3 -10 -12z"/>
<path d="M643 1540 c0 -25 2 -35 4 -22 2 12 2 32 0 45 -2 12 -4 2 -4 -23z"/>
<path d="M643 1455 c0 -22 2 -30 4 -17 2 12 2 30 0 40 -3 9 -5 -1 -4 -23z"/>
<path d="M671 1353 c-1 -18 3 -33 9 -33 5 0 12 -11 16 -24 5 -22 18 -33 42
-37 4 0 13 -5 20 -11 9 -8 12 5 12 62 0 63 -2 71 -15 60 -8 -7 -15 -8 -15 -3
0 11 -29 11 -47 0 -6 -4 -14 -1 -16 5 -3 7 -6 -2 -6 -19z"/>
<path d="M633 1329 c-8 -8 -9 -18 -3 -30 15 -26 -7 -35 -33 -12 -12 10 -28 25
-35 33 -11 13 -11 11 -1 -10 16 -34 50 -70 66 -70 7 0 13 -5 13 -11 0 -5 5 -7
11 -4 6 4 18 -3 26 -15 8 -12 29 -30 47 -41 25 -15 27 -19 11 -19 -23 0 -57
-53 -49 -75 4 -8 18 -15 33 -15 41 0 126 -34 129 -52 2 -8 -3 -22 -10 -30 -19
-20 -58 -76 -58 -83 0 -3 11 2 25 11 14 9 32 14 40 10 8 -3 15 -1 15 5 0 6 5
7 10 4 6 -4 8 -10 5 -15 -3 -5 1 -10 9 -12 15 -3 10 -24 -28 -110 -9 -22 -12
-38 -6 -38 5 0 10 6 10 14 0 7 25 37 55 65 l55 52 -31 26 c-16 14 -28 32 -25
39 3 7 -11 46 -30 86 -20 40 -41 84 -48 98 -7 16 -23 27 -48 32 -80 16 -135
70 -140 137 -2 33 -6 40 -15 30z"/>
<path d="M972 792 c-43 -49 -40 -76 10 -80 49 -4 74 11 82 48 14 74 -39 92
-92 32z"/>
<path d="M3040 815 c7 -8 17 -15 22 -15 6 0 5 7 -2 15 -7 8 -17 15 -22 15 -6
0 -5 -7 2 -15z"/>
<path d="M2661 746 c-10 -11 -9 -25 3 -61 21 -60 21 -63 -11 -67 -34 -4 -42
-32 -14 -47 13 -8 28 -8 46 -1 14 5 24 6 21 1 -3 -5 5 -11 19 -13 14 -3 25 -1
25 4 0 6 7 8 15 4 9 -3 15 0 15 9 0 9 6 12 15 9 9 -4 15 0 15 10 0 9 5 16 11
16 5 0 7 -6 4 -12 -4 -7 1 -4 9 6 9 11 16 16 16 11 0 -4 9 0 20 10 11 10 20
22 20 27 0 12 -72 98 -82 98 -4 0 -16 -19 -26 -42 -10 -24 -26 -49 -34 -56
-13 -11 -19 -4 -38 48 -24 63 -30 69 -49 46z"/>
<path d="M1090 680 c-14 -11 -20 -20 -13 -20 6 0 15 4 18 10 3 5 20 14 38 19
28 8 29 9 7 10 -14 0 -36 -8 -50 -19z"/>
<path d="M2500 641 c0 -5 6 -12 13 -14 8 -4 8 -6 1 -6 -9 -1 -9 -13 -2 -43 19
-86 58 -112 90 -60 10 15 18 21 18 15 0 -7 5 -13 11 -13 8 0 8 5 -1 15 -7 8
-16 13 -20 10 -4 -2 -16 5 -28 15 -12 11 -25 20 -31 20 -11 0 -23 29 -16 40 3
5 -4 14 -15 20 -12 6 -20 7 -20 1z"/>
<path d="M1212 598 l-24 -28 36 21 c40 23 41 25 24 31 -7 3 -24 -8 -36 -24z"/>
<path d="M1476 608 c-20 -28 -21 -82 -1 -98 11 -9 19 -7 40 14 34 34 33 99 -2
104 -13 2 -27 -5 -37 -20z"/>
<path d="M2372 580 c-20 -46 -27 -50 -36 -15 -7 28 -24 33 -32 10 -5 -13 5
-73 23 -137 9 -34 32 -19 35 22 l3 41 34 -25 c26 -20 38 -23 48 -14 17 13 3
32 -39 54 l-29 15 20 35 c25 42 26 54 5 54 -9 0 -23 -17 -32 -40z"/>
<path d="M1664 582 c-33 -22 -44 -91 -19 -112 13 -11 20 -9 41 11 43 40 23
132 -22 101z"/>
<path d="M1840 578 c0 -11 29 -37 43 -38 4 0 3 8 -2 19 -12 22 -41 36 -41 19z"/>
<path d="M2075 513 c-43 -11 -48 -24 -42 -102 3 -40 10 -78 15 -83 6 -6 30 -7
63 -1 40 6 55 13 57 27 3 16 -2 18 -44 14 -38 -2 -49 0 -52 12 -2 10 9 19 29
25 40 13 39 29 -2 35 -18 3 -34 10 -36 17 -4 11 11 18 62 25 29 5 25 33 -5 35
-14 0 -34 -1 -45 -4z"/>
<path d="M0 459 c0 -5 13 -22 29 -38 29 -28 29 -28 6 -28 -14 0 -26 7 -28 16
-3 9 -5 -28 -6 -81 -1 -87 1 -98 17 -99 9 -1 40 -2 67 -3 28 -2 73 -6 100 -10
80 -11 205 -15 205 -6 0 4 -13 13 -30 19 -35 12 -42 36 -7 25 12 -3 24 -11 25
-15 2 -5 9 -9 15 -9 6 0 20 -9 32 -20 15 -14 44 -22 100 -28 44 -5 82 -8 84
-6 3 3 -5 13 -17 24 -12 12 -22 26 -21 33 0 7 7 2 16 -11 19 -27 37 -29 30 -2
-3 11 -1 23 4 26 5 3 9 11 9 18 0 16 -37 28 -46 15 -3 -5 0 -9 5 -9 6 0 11 -4
11 -10 0 -16 -41 -12 -111 11 -73 25 -84 32 -74 50 6 9 11 8 20 -4 7 -10 23
-16 36 -15 13 1 34 -2 47 -6 13 -4 22 -3 22 3 0 15 -30 27 -62 26 -15 0 -30 5
-33 13 -3 7 -9 11 -14 8 -5 -4 -11 -2 -13 3 -1 4 -13 12 -25 15 -17 6 -23 3
-23 -9 0 -9 7 -15 16 -13 10 2 19 -3 21 -9 9 -25 -17 -13 -57 26 -45 43 -50
56 -19 48 13 -3 19 -1 16 6 -2 7 -16 13 -31 15 -24 3 -27 1 -22 -16 4 -11 4
-32 0 -47 -6 -26 -7 -26 -28 -7 -11 11 -27 17 -33 15 -8 -3 -13 3 -12 14 0 10
3 13 6 5 2 -6 9 -10 13 -7 15 9 -1 35 -21 35 -15 0 -19 -7 -19 -31 0 -16 -4
-28 -9 -25 -5 3 -8 17 -8 31 0 32 -10 42 -25 27 -8 -8 -21 -6 -48 8 -21 11
-40 16 -44 13 -3 -3 -11 -1 -18 4 -21 16 -48 23 -48 12z m124 -75 c4 -10 1
-14 -6 -12 -15 5 -23 28 -10 28 5 0 13 -7 16 -16z m223 -64 c6 0 17 -7 24 -16
12 -15 11 -16 -11 -9 -14 4 -27 12 -28 17 -2 5 -10 4 -17 -2 -14 -12 -65 -3
-65 11 0 5 11 7 25 5 18 -3 25 0 25 11 0 14 2 14 18 0 10 -10 23 -17 29 -17z
m-237 16 c0 -3 -4 -8 -10 -11 -5 -3 -10 -1 -10 4 0 6 5 11 10 11 6 0 10 -2 10
-4z m115 -10 c18 -13 18 -14 -8 -9 -15 3 -27 9 -27 14 0 13 13 11 35 -5z m-20
-56 c3 -5 2 -10 -4 -10 -5 0 -13 5 -16 10 -3 6 -2 10 4 10 5 0 13 -4 16 -10z
m105 -10 c0 -13 -20 -13 -40 0 -12 8 -9 10 13 10 15 0 27 -4 27 -10z m204 -35
c20 -8 36 -20 36 -25 0 -6 -13 -4 -30 5 -16 8 -38 15 -50 15 -11 0 -20 5 -20
10 0 14 22 12 64 -5z"/>
<path d="M1357 454 c-27 -15 -35 -38 -17 -49 6 -3 15 -26 21 -50 23 -93 123
-166 206 -150 52 10 102 37 142 79 19 20 41 36 48 36 18 0 16 14 -5 41 -22 26
-52 20 -52 -10 0 -27 -73 -89 -114 -97 -50 -9 -100 3 -135 31 -37 32 -64 99
-56 141 7 40 -2 46 -38 28z"/>
<path d="M1868 443 c-14 -37 -16 -105 -2 -110 7 -2 14 15 17 44 3 26 9 58 12
71 11 32 -13 28 -27 -5z"/>
<path d="M2250 441 c0 -29 11 -51 25 -51 9 0 10 8 1 35 -12 38 -26 47 -26 16z"/>
<path d="M2999 426 c-2 -3 -29 -6 -59 -7 -122 -3 -317 -41 -465 -88 -49 -16
-110 -32 -135 -35 -45 -6 -115 -27 -125 -38 -3 -3 59 -8 137 -12 79 -4 186
-13 238 -21 212 -32 236 -35 250 -41 8 -3 42 -11 75 -18 33 -8 123 -32 200
-55 77 -23 157 -44 178 -47 22 -2 46 -11 54 -19 19 -19 32 -22 173 -37 8 0 23
0 34 0 15 2 16 5 6 17 -7 8 -15 13 -19 11 -10 -7 -37 12 -29 19 4 4 23 1 42
-6 27 -10 35 -17 30 -31 -5 -17 26 -17 610 -18 l616 0 0 149 c0 138 -1 149
-19 154 -11 2 -24 0 -30 -6 -8 -8 -11 -8 -11 1 0 15 -90 8 -100 -9 -4 -6 -13
-8 -19 -5 -6 4 -11 3 -11 -3 0 -5 -8 -10 -17 -11 -81 -5 -104 -8 -109 -13 -3
-3 -12 -3 -20 0 -8 3 -24 -1 -37 -9 -12 -8 -44 -15 -72 -16 -27 -1 -63 -4 -80
-7 l-30 -6 29 15 c16 9 48 22 73 29 24 7 45 17 45 22 1 6 -33 17 -75 25 -42 8
-79 19 -83 23 -21 20 -377 -7 -423 -33 -10 -5 23 -26 112 -69 70 -33 133 -61
139 -61 32 0 -15 -21 -89 -40 -76 -20 -84 -20 -112 -5 -17 8 -33 15 -36 15
-32 -1 -46 3 -65 18 -20 16 -21 21 -10 41 11 21 9 27 -14 50 -20 19 -26 22
-26 9 0 -8 9 -22 20 -29 15 -10 17 -18 10 -29 -9 -13 -15 -10 -38 18 -15 18
-33 32 -39 32 -7 0 -13 9 -13 20 0 10 -9 24 -20 30 -18 10 -20 8 -17 -12 2
-13 2 -17 0 -10 -3 6 -10 12 -16 12 -7 0 -21 11 -31 25 -10 14 -23 25 -27 25
-15 0 -10 -30 6 -36 19 -8 20 -24 1 -24 -8 0 -17 13 -21 29 -6 27 -28 47 -47
43 -5 -1 -8 2 -8 8 0 5 -4 10 -10 10 -5 0 -10 -6 -10 -14 0 -24 -25 -25 -37 0
-9 19 -8 24 6 26 9 2 -6 12 -33 22 -38 15 -53 16 -67 7 -24 -15 -29 -14 -29 4
0 8 -7 15 -16 15 -11 0 -15 -6 -11 -20 6 -24 -1 -26 -17 -5 -8 12 -40 16 -132
20 -66 3 -123 3 -125 1z m381 -36 c0 -5 -4 -10 -10 -10 -5 0 -10 5 -10 10 0 6
5 10 10 10 6 0 10 -4 10 -10z m87 -92 c-3 -8 -6 -5 -6 6 -1 11 2 17 5 13 3 -3
4 -12 1 -19z m1243 -38 c0 -5 -2 -10 -4 -10 -3 0 -8 5 -11 10 -3 6 -1 10 4 10
6 0 11 -4 11 -10z m-1053 -37 c3 -7 -4 -9 -16 -6 -12 3 -18 9 -15 15 7 11 26
6 31 -9z m-132 -23 c3 -5 1 -10 -4 -10 -6 0 -11 5 -11 10 0 6 2 10 4 10 3 0 8
-4 11 -10z m140 -10 c3 -5 1 -10 -4 -10 -6 0 -11 5 -11 10 0 6 2 10 4 10 3 0
8 -4 11 -10z m-85 -20 c0 -5 -2 -10 -4 -10 -3 0 -8 5 -11 10 -3 6 -1 10 4 10
6 0 11 -4 11 -10z m150 -30 c0 -5 -4 -10 -10 -10 -5 0 -10 5 -10 10 0 6 5 10
10 10 6 0 10 -4 10 -10z m-10 -30 c0 -16 -17 -20 -28 -7 -8 10 -6 13 9 14 10
1 19 -2 19 -7z m54 4 c9 -3 13 -10 10 -15 -3 -5 4 -9 15 -9 12 0 21 7 21 15 0
17 2 18 24 9 26 -10 18 -32 -14 -39 -34 -7 -90 13 -90 32 0 14 10 16 34 7z
m-125 -33 c7 -5 12 -14 9 -21 -2 -7 -10 -4 -22 9 -19 21 -12 28 13 12z m-162
-33 c-3 -7 -5 -2 -5 12 0 14 2 19 5 13 2 -7 2 -19 0 -25z m-107 2 c0 -5 -4
-10 -10 -10 -5 0 -10 5 -10 10 0 6 5 10 10 10 6 0 10 -4 10 -10z m308 -16 c5
-13 -31 -22 -50 -12 -10 5 -18 12 -18 16 0 10 64 7 68 -4z"/>
<path d="M1084 405 c3 -9 0 -15 -9 -15 -8 0 -15 5 -15 10 0 12 -87 14 -94 2
-3 -5 -26 -9 -53 -11 -57 -2 -123 -19 -123 -30 0 -15 368 -101 430 -101 16 0
31 -4 34 -8 4 -7 66 -16 66 -10 0 2 -9 32 -21 68 -22 70 -30 80 -71 80 -15 0
-32 8 -37 18 -6 9 -11 12 -11 6 0 -18 -47 -23 -76 -8 -23 12 -25 12 -20 -1z
m190 -44 c3 -4 -6 -6 -19 -3 -14 2 -25 6 -25 8 0 8 39 4 44 -5z"/>
<path d="M2438 381 c-11 -13 -24 -18 -39 -14 -16 4 -20 2 -17 -8 5 -16 68 -25
68 -10 0 6 12 11 28 11 15 0 34 5 42 10 11 7 7 10 -18 10 -20 0 -31 4 -27 10
11 18 -20 10 -37 -9z"/>
<path d="M460 365 c7 -8 24 -15 39 -15 25 1 25 1 7 15 -11 8 -29 15 -39 15
-16 0 -17 -3 -7 -15z"/>
<path d="M675 270 c3 -5 8 -10 11 -10 2 0 4 5 4 10 0 6 -5 10 -11 10 -5 0 -7
-4 -4 -10z"/>
<path d="M840 270 c0 -13 18 -22 24 -11 3 5 -1 11 -9 15 -8 3 -15 1 -15 -4z"/>
<path d="M880 256 c0 -2 7 -6 15 -10 8 -3 15 -1 15 4 0 6 -7 10 -15 10 -8 0
-15 -2 -15 -4z"/>
<path d="M935 240 c3 -5 8 -10 11 -10 2 0 4 5 4 10 0 6 -5 10 -11 10 -5 0 -7
-4 -4 -10z"/>
<path d="M722 222 c21 -27 42 -42 55 -37 6 2 13 -5 16 -16 7 -27 37 -25 34 3
-2 25 -27 42 -83 57 -32 9 -34 8 -22 -7z"/>
<path d="M825 230 c3 -5 11 -10 16 -10 6 0 7 5 4 10 -3 6 -11 10 -16 10 -6 0
-7 -4 -4 -10z"/>
<path d="M3815 219 c-10 -15 3 -25 16 -12 7 7 7 13 1 17 -6 3 -14 1 -17 -5z"/>
<path d="M640 213 c0 -6 -2 -17 -5 -25 -9 -22 56 -43 125 -39 22 2 21 4 -15
21 -22 11 -49 19 -59 20 -10 0 -25 8 -32 18 -7 9 -14 12 -14 5z"/>
<path d="M885 210 c28 -12 45 -12 45 0 0 6 -15 10 -32 9 -28 0 -30 -2 -13 -9z"/>
<path d="M1134 212 c10 -16 66 -45 66 -33 0 13 -26 32 -33 24 -4 -3 -14 0 -24
8 -11 9 -14 10 -9 1z"/>
<path d="M1954 203 c-6 -7 -30 -11 -53 -10 -29 1 -49 -5 -68 -21 -48 -37 -135
-75 -185 -80 -28 -3 -76 3 -116 13 -54 14 -78 16 -109 8 -33 -8 -42 -7 -52 6
-10 14 -11 13 -6 -6 4 -15 2 -23 -7 -23 -21 0 -39 16 -36 31 2 10 -7 14 -30
14 -23 0 -39 7 -52 25 l-20 25 0 -27 c0 -22 8 -31 53 -52 37 -17 46 -25 30
-25 -13 -1 -23 -5 -23 -11 0 -5 -11 -10 -25 -10 -26 0 -35 15 -13 22 18 6 0
28 -23 28 -16 0 -19 4 -14 21 4 12 3 19 -2 16 -5 -3 -29 1 -52 9 -24 8 -46 12
-50 9 -11 -11 32 -35 62 -35 21 0 28 -4 24 -14 -3 -8 2 -16 14 -19 10 -3 19
-10 19 -16 0 -7 -17 -3 -41 10 -23 11 -62 23 -88 25 -77 7 -81 8 -81 15 0 3
-21 12 -47 18 -27 7 -56 17 -65 22 -25 13 -27 12 -24 -16 4 -34 16 -44 17 -14
l0 24 16 -23 c8 -12 24 -22 35 -22 10 0 29 -7 43 -16 13 -8 29 -14 37 -13 7 2
23 -2 35 -9 13 -7 34 -10 48 -6 14 3 31 2 38 -4 6 -6 22 -12 35 -14 12 -1 22
-7 22 -12 -1 -5 18 -17 41 -27 40 -18 81 -19 861 -19 807 0 818 1 808 20 -7
13 -16 17 -28 13 -9 -3 -14 -2 -10 2 10 10 -48 47 -70 44 -15 -2 -44 8 -117
41 -52 23 -207 71 -212 66 -4 -3 -12 -1 -20 6 -12 10 -13 7 -7 -16 6 -26 5
-27 -22 -20 -46 11 -49 16 -18 30 24 10 26 13 9 14 -11 1 -24 2 -28 1 -27 -4
-57 -2 -94 7 -35 8 -43 7 -43 -4 0 -8 9 -14 19 -14 10 0 21 -7 25 -15 4 -11 0
-14 -17 -11 -12 3 -28 5 -34 5 -7 1 -13 8 -13 16 0 24 -29 30 -45 9 -10 -13
-14 -15 -15 -5 0 9 -11 12 -40 9 -27 -2 -40 1 -40 8 0 16 -119 13 -136 -3z
m259 -36 c-3 -5 -10 -4 -15 1 -6 6 -7 16 -3 22 6 9 9 9 16 -1 4 -7 5 -17 2
-22z m-93 3 c0 -5 -4 -10 -10 -10 -5 0 -10 5 -10 10 0 6 5 10 10 10 6 0 10 -4
10 -10z m227 -22 c-3 -8 -6 -5 -6 6 -1 11 2 17 5 13 3 -3 4 -12 1 -19z m153
12 c0 -5 -7 -10 -16 -10 -8 0 -12 5 -9 10 3 6 10 10 16 10 5 0 9 -4 9 -10z
m79 -73 c0 -9 -2 -9 -6 1 -2 6 -11 12 -19 12 -8 0 -14 5 -14 10 0 7 6 7 20 0
11 -6 20 -16 19 -23z m41 -13 c0 -8 -4 -12 -10 -9 -5 3 -10 10 -10 16 0 5 5 9
10 9 6 0 10 -7 10 -16z m105 -14 c3 -5 1 -10 -4 -10 -6 0 -11 5 -11 10 0 6 2
10 4 10 3 0 8 -4 11 -10z m65 -15 c30 -32 21 -32 -16 0 -16 14 -24 25 -18 25
6 0 21 -11 34 -25z m-115 -15 c3 -6 -1 -7 -9 -4 -18 7 -21 14 -7 14 6 0 13 -4
16 -10z"/>
<path d="M940 200 c0 -12 21 -26 58 -38 29 -10 32 -9 32 9 0 10 -7 20 -15 20
-17 2 -34 5 -37 9 -9 6 -38 7 -38 0z"/>
<path d="M1048 163 c3 -16 7 -22 9 -15 3 6 11 12 19 12 19 0 18 16 -2 24 -27
10 -31 7 -26 -21z"/>
<path d="M3805 180 c-10 -16 3 -29 25 -23 24 6 26 19 4 27 -21 8 -22 8 -29 -4z"/>
<path d="M1260 160 c0 -5 5 -10 11 -10 5 0 7 5 4 10 -3 6 -8 10 -11 10 -2 0
-4 -4 -4 -10z"/>
<path d="M1370 160 c0 -5 9 -14 21 -20 19 -11 20 -10 9 9 -11 22 -30 29 -30
11z"/>
<path d="M2705 160 c-8 -13 15 -24 27 -12 6 6 4 11 -6 15 -8 3 -18 2 -21 -3z"/>
<path d="M3866 156 c6 -16 34 -29 43 -20 6 6 -27 34 -41 34 -4 0 -5 -6 -2 -14z"/>
<path d="M0 131 c0 -11 5 -23 10 -26 6 -3 10 -1 10 5 0 7 19 -2 42 -19 28 -21
48 -29 64 -25 12 3 24 2 27 -3 3 -5 22 -7 41 -5 33 4 35 6 30 31 -4 14 -11 31
-17 36 -6 7 -8 2 -4 -14 5 -21 3 -23 -25 -17 -39 8 -46 15 -28 26 11 7 8 10
-13 10 -25 0 -27 -3 -22 -22 l7 -23 -16 22 c-11 15 -26 21 -48 21 -18 -1 -34
4 -36 10 -6 19 -22 14 -22 -7z"/>
<path d="M230 111 c0 -5 5 -13 10 -16 6 -3 10 -2 10 4 0 5 -4 13 -10 16 -5 3
-10 2 -10 -4z"/>
<path d="M457 84 c17 -34 34 -45 32 -21 -1 26 -16 50 -32 53 -14 2 -14 -1 0
-32z"/>
<path d="M2745 110 c3 -5 10 -10 16 -10 5 0 9 5 9 10 0 6 -7 10 -16 10 -8 0
-12 -4 -9 -10z"/>
<path d="M2850 105 c0 -8 7 -15 16 -15 14 0 14 3 4 15 -7 8 -14 15 -16 15 -2
0 -4 -7 -4 -15z"/>
<path d="M502 80 c2 -14 8 -25 15 -25 6 0 14 -3 18 -7 6 -6 35 14 35 24 0 2
-12 4 -26 5 -15 0 -31 7 -36 15 -6 9 -8 6 -6 -12z"/>
<path d="M270 74 c0 -8 5 -12 10 -9 6 3 10 10 10 16 0 5 -4 9 -10 9 -5 0 -10
-7 -10 -16z"/>
<path d="M2912 65 c16 -14 39 -25 56 -25 15 0 33 -5 40 -12 9 -9 15 -9 24 0
22 22 -46 58 -117 61 l-30 1 27 -25z"/>
<path d="M290 61 c0 -11 28 -41 38 -41 4 0 16 7 26 15 18 13 15 20 -6 16 -5 0
-8 4 -8 9 0 6 -11 10 -25 10 -14 0 -25 -4 -25 -9z"/>
<path d="M590 60 c0 -5 5 -10 10 -10 6 0 10 5 10 10 0 6 -4 10 -10 10 -5 0
-10 -4 -10 -10z"/>
<path d="M12 40 c-22 -36 -14 -40 70 -40 80 0 81 0 63 20 -11 12 -23 17 -29
12 -17 -12 -54 -7 -74 11 -16 15 -19 15 -30 -3z"/>
<path d="M713 52 c-8 -5 -6 -14 8 -31 l19 -23 0 31 c0 31 -6 37 -27 23z"/>
<path d="M170 16 c0 -10 9 -16 25 -16 14 0 25 5 25 10 0 6 -4 10 -9 10 -5 0
-16 3 -25 6 -11 4 -16 1 -16 -10z"/>
<path d="M460 14 c0 -10 12 -14 42 -14 48 0 47 4 -4 18 -31 8 -38 8 -38 -4z"/>
<path d="M3100 20 c0 -5 8 -10 18 -10 9 0 28 -3 42 -6 l25 -5 -25 15 c-29 18
-60 21 -60 6z"/>
<path d="M2935 10 c-4 -6 7 -10 27 -10 25 0 29 3 18 10 -19 13 -37 13 -45 0z"/>
</g>
</svg>
